<?xml version="1.0" encoding="utf-8"?>
<!-- Generator: Adobe Illustrator 25.2.3, SVG Export Plug-In . SVG Version: 6.00 Build 0)  -->
<svg version="1.1" id="Capa_1" xmlns="http://www.w3.org/2000/svg" xmlns:xlink="http://www.w3.org/1999/xlink" x="0px" y="0px"
	 viewBox="0 0 32.9 32.9" style="enable-background:new 0 0 32.9 32.9;" xml:space="preserve">
<style type="text/css">
	.st0{fill:#F75757;}
</style>
<g>
	<g>
		<path class="st0" d="M10.6,8.8c-0.3-0.3-0.9-0.3-1.2,0c-1.3,1.3-1.9,3-1.7,4.8c0,0.5,0.4,0.8,0.9,0.8c0,0,0.1,0,0.1,0
			c0.5,0,0.8-0.5,0.8-1c-0.1-1.3,0.3-2.5,1.2-3.4C11,9.7,11,9.2,10.6,8.8z"/>
	</g>
</g>
<g>
	<g>
		<path class="st0" d="M14.1,3.4c-5.5,0-10,4.5-10,10s4.5,10,10,10s10-4.5,10-10S19.6,3.4,14.1,3.4z M14.1,22.5
			c-5,0-9.1-4.1-9.1-9.1s4.1-9.1,9.1-9.1c5,0,9.1,4.1,9.1,9.1S19.1,22.5,14.1,22.5z"/>
	</g>
</g>
<g>
	<g>
		<path class="st0" d="M29.1,26.7l-7.3-6.3c-0.4-0.3-1-0.3-1.4,0c-0.4,0.3-0.4,0.9,0,1.2l7.3,6.3c0.2,0.2,0.5,0.3,0.7,0.3
			c0.3,0,0.5-0.1,0.7-0.3C29.5,27.5,29.5,27,29.1,26.7z"/>
	</g>
</g>
</svg>
