<?xml version="1.0" encoding="utf-8"?>
<!-- Generator: Adobe Illustrator 25.2.3, SVG Export Plug-In . SVG Version: 6.00 Build 0)  -->
<svg version="1.1" id="Capa_1" xmlns="http://www.w3.org/2000/svg" xmlns:xlink="http://www.w3.org/1999/xlink" x="0px" y="0px"
	 viewBox="0 0 72 72" style="enable-background:new 0 0 72 72;" xml:space="preserve">
<style type="text/css">
	.st0{fill:#F75757;}
</style>
<g>
	<g>
		<path class="st0" d="M34,17H12c-2.8,0-5,2.2-5,5v32c0,2.8,2.2,5,5,5h13v-2H12c-1.7,0-3-1.3-3-3V22c0-1.7,1.3-3,3-3h22
			c1.7,0,3,1.3,3,3v1h2v-1C39,19.2,36.8,17,34,17z"/>
	</g>
</g>
<g>
	<g>
		<path class="st0" d="M29,4H17c-1.7,0-3,1.3-3,3s1.3,3,3,3h12c1.7,0,3-1.3,3-3S30.7,4,29,4z M29,8H17c-0.6,0-1-0.4-1-1s0.4-1,1-1
			h12c0.6,0,1,0.4,1,1C30,7.6,29.6,8,29,8z"/>
	</g>
</g>
<g>
	<g>
		<rect x="18" y="9" class="st0" width="2" height="9"/>
	</g>
</g>
<g>
	<g>
		<rect x="26" y="9" class="st0" width="2" height="9"/>
	</g>
</g>
<g>
	<g>
		<rect x="13" y="34" class="st0" width="2" height="18"/>
	</g>
</g>
<g>
	<g>
		<rect x="25" y="23" class="st0" width="2" height="8"/>
	</g>
</g>
<g>
	<g>
		<path class="st0" d="M11.5,57C9.6,57,8,58.6,8,60.5c0,1.9,1.6,3.5,3.5,3.5s3.5-1.6,3.5-3.5C15,58.6,13.4,57,11.5,57z M11.5,62
			c-0.8,0-1.5-0.7-1.5-1.5c0-0.8,0.7-1.5,1.5-1.5s1.5,0.7,1.5,1.5C13,61.3,12.3,62,11.5,62z"/>
	</g>
</g>
<g>
	<g>
		<rect x="19" y="23" class="st0" width="2" height="29"/>
	</g>
</g>
<g>
	<g>
		<path class="st0" d="M17.9,31.6l-2-5c-0.1-0.2-0.3-0.4-0.5-0.6c-0.2-0.1-0.5-0.1-0.8,0l-7,3C7.2,29.2,7,29.6,7,30v6
			c0,0.3,0.2,0.7,0.5,0.8C7.6,36.9,7.8,37,8,37c0.1,0,0.3,0,0.4-0.1l9-4C17.9,32.7,18.1,32.1,17.9,31.6z M9,34.5v-3.8l5.5-2.3
			l1.3,3.2L9,34.5z"/>
	</g>
</g>
<g>
	<g>
		<rect x="13" y="23" class="st0" width="2" height="5"/>
	</g>
</g>
<g>
	<g>
		<rect x="31" y="23" class="st0" width="2" height="8"/>
	</g>
</g>
<g>
	<g>
		<path class="st0" d="M34.5,57c-1.9,0-3.5,1.6-3.5,3.5c0,1.9,1.6,3.5,3.5,3.5c1.9,0,3.5-1.6,3.5-3.5C38,58.6,36.4,57,34.5,57z
			 M34.5,62c-0.8,0-1.5-0.7-1.5-1.5c0-0.8,0.7-1.5,1.5-1.5c0.8,0,1.5,0.7,1.5,1.5C36,61.3,35.3,62,34.5,62z"/>
	</g>
</g>
<g>
	<g>
		<path class="st0" d="M62,29H27c-2.8,0-5,2.2-5,5v20c0,2.8,2.2,5,5,5h35c2.8,0,5-2.2,5-5V34C67,31.2,64.8,29,62,29z M65,54
			c0,1.7-1.3,3-3,3H27c-1.7,0-3-1.3-3-3V34c0-1.7,1.3-3,3-3h35c1.7,0,3,1.3,3,3L65,54L65,54z"/>
	</g>
</g>
<g>
	<g>
		<path class="st0" d="M49,25h-9c-0.6,0-1,0.4-1,1v4h2v-3h7v3h2v-4C50,25.4,49.6,25,49,25z"/>
	</g>
</g>
<g>
	<g>
		<path class="st0" d="M49,21h-9c-2.8,0-5,2.2-5,5v4h2v-4c0-1.7,1.3-3,3-3h9c1.7,0,3,1.3,3,3v4h2v-4C54,23.2,51.8,21,49,21z"/>
	</g>
</g>
<g>
	<g>
		<path class="st0" d="M48.8,40.4l-5-7c-0.4-0.5-1.3-0.5-1.6,0l-5,7c-0.2,0.3-0.2,0.7-0.1,1c0.2,0.3,0.5,0.5,0.9,0.5h10
			c0.4,0,0.7-0.2,0.9-0.5C49.1,41.1,49,40.7,48.8,40.4z M39.9,40l3.1-4.3l3.1,4.3H39.9z"/>
	</g>
</g>
<g>
	<g>
		<path class="st0" d="M58.6,43.3c-3.1-1-6.4,0.3-7.3,2.9c-0.4,1.3-0.2,2.7,0.6,4c0.8,1.2,2,2.1,3.5,2.6c0.7,0.2,1.5,0.4,2.2,0.4
			c2.3,0,4.4-1.2,5.1-3.2C63.6,47.3,61.7,44.4,58.6,43.3z M60.8,49.3c-0.5,1.6-2.6,2.3-4.7,1.6c-1.1-0.3-1.9-1-2.5-1.8
			c-0.5-0.8-0.6-1.6-0.4-2.3c0,0,0,0,0,0c0.4-1.2,1.7-1.9,3.1-1.9c0.5,0,1.1,0.1,1.6,0.3C60,45.9,61.3,47.7,60.8,49.3z"/>
	</g>
</g>
<g>
	<g>
		<path class="st0" d="M26.5,57c-1.9,0-3.5,1.6-3.5,3.5c0,1.9,1.6,3.5,3.5,3.5s3.5-1.6,3.5-3.5C30,58.6,28.4,57,26.5,57z M26.5,62
			c-0.8,0-1.5-0.7-1.5-1.5c0-0.8,0.7-1.5,1.5-1.5c0.8,0,1.5,0.7,1.5,1.5C28,61.3,27.3,62,26.5,62z"/>
	</g>
</g>
<g>
	<g>
		<path class="st0" d="M62.5,57c-1.9,0-3.5,1.6-3.5,3.5c0,1.9,1.6,3.5,3.5,3.5s3.5-1.6,3.5-3.5C66,58.6,64.4,57,62.5,57z M62.5,62
			c-0.8,0-1.5-0.7-1.5-1.5c0-0.8,0.7-1.5,1.5-1.5c0.8,0,1.5,0.7,1.5,1.5C64,61.3,63.3,62,62.5,62z"/>
	</g>
</g>
<g>
	<g>
		<rect x="31" y="50" class="st0" width="2" height="8"/>
	</g>
</g>
<g>
	<g>
		<path class="st0" d="M32,29h-4c-0.6,0-1,0.4-1,1v12h2V31h2v13h2V30C33,29.4,32.6,29,32,29z"/>
	</g>
</g>
<g>
	<g>
		<rect x="27" y="47" class="st0" width="2" height="11"/>
	</g>
</g>
<g>
	<g>
		<rect x="60" y="51" class="st0" width="2" height="7"/>
	</g>
</g>
<g>
	<g>
		<path class="st0" d="M61,29h-4c-0.6,0-1,0.4-1,1v14h2V31h2v15h2V30C62,29.4,61.6,29,61,29z"/>
	</g>
</g>
<g>
	<g>
		<rect x="56" y="52" class="st0" width="2" height="6"/>
	</g>
</g>
<g>
	<g>
		<path class="st0" d="M35.5,45.1l-12-7l-1,1.7l11.2,6.5l-1.1,2.2l-9.1-5.4l-1,1.7l10,6C32.6,51,32.8,51,33,51c0.1,0,0.2,0,0.3,0
			c0.3-0.1,0.5-0.3,0.6-0.5l2-4C36.1,46,36,45.4,35.5,45.1z"/>
	</g>
</g>
</svg>
