<?xml version="1.0" encoding="utf-8"?>
<!-- Generator: Adobe Illustrator 25.2.3, SVG Export Plug-In . SVG Version: 6.00 Build 0)  -->
<svg version="1.1" id="Capa_1" xmlns="http://www.w3.org/2000/svg" xmlns:xlink="http://www.w3.org/1999/xlink" x="0px" y="0px"
	 viewBox="0 0 32.8 32.8" style="enable-background:new 0 0 32.8 32.8;" xml:space="preserve">
<style type="text/css">
	.st0{fill:#F75757;}
</style>
<g>
	<path class="st0" d="M22.7,7.3H25c0.2,0,0.4-0.2,0.4-0.4c0-0.2-0.2-0.4-0.4-0.4h-2.3c-0.2,0-0.4,0.2-0.4,0.4
		C22.3,7.1,22.5,7.3,22.7,7.3z"/>
	<path class="st0" d="M29,6.4h-2.2c-0.2,0-0.4,0.2-0.4,0.4c0,0.2,0.2,0.4,0.4,0.4H29c0.7,0,1.2,0.6,1.2,1.2v15.6H6.6
		c-0.2,0-0.4,0.2-0.4,0.4S6.4,25,6.6,25h23.7v0.5c0,0.7-0.6,1.2-1.2,1.2H3.3c-0.7,0-1.2-0.6-1.2-1.2V25h2.7c0.2,0,0.4-0.2,0.4-0.4
		S5,24.1,4.8,24.1H2.1V8.5c0-0.7,0.6-1.2,1.2-1.2h6.3c0.2,0,0.4-0.2,0.4-0.4c0-0.2-0.2-0.4-0.4-0.4H3.3c-1.2,0-2.1,1-2.1,2.1v16.9
		c0,1.2,1,2.1,2.1,2.1h7.3v1.7l-1.1,1.5H9c-0.2,0-0.4,0.2-0.4,0.4c0,0.2,0.2,0.4,0.4,0.4h14.5c0.2,0,0.4-0.2,0.4-0.4
		c0-0.2-0.2-0.4-0.4-0.4h-0.6l-1.1-1.5v-1.7H29c1.2,0,2.1-1,2.1-2.1V8.5C31.2,7.4,30.2,6.4,29,6.4L29,6.4z M21,29.7l0.8,1.1H10.6
		l0.8-1.1c0.1-0.1,0.1-0.2,0.1-0.3v-1.9h9.4v1.9C20.9,29.5,21,29.6,21,29.7L21,29.7z"/>
	<path class="st0" d="M16.2,12.1c2.9,0,5.2-2.3,5.2-5.2s-2.3-5.2-5.2-5.2S11,4,11,6.8C11,9.7,13.3,12.1,16.2,12.1z M16.2,2.5
		c2.4,0,4.3,1.9,4.3,4.3s-1.9,4.3-4.3,4.3s-4.3-1.9-4.3-4.3S13.8,2.5,16.2,2.5z"/>
	<path class="st0" d="M15.3,9c0.1,0.1,0.2,0.1,0.3,0.1c0.1,0,0.2,0,0.3-0.1L19,6c0.2-0.2,0.2-0.4,0-0.6c-0.2-0.2-0.4-0.2-0.6,0
		l-2.8,2.7l-0.9-0.8c-0.2-0.2-0.5-0.2-0.6,0c-0.2,0.2-0.2,0.5,0,0.6L15.3,9z"/>
	<path class="st0" d="M8.1,14.8h12.4c0.2,0,0.4-0.2,0.4-0.4c0-0.2-0.2-0.4-0.4-0.4H8.1c-0.6,0-1.1,0.5-1.1,1.1v2.6
		c0,0.6,0.5,1.1,1.1,1.1h7.2c0.2,0,0.4-0.2,0.4-0.4c0-0.2-0.2-0.4-0.4-0.4H8.1c-0.1,0-0.3-0.1-0.3-0.3V15
		C7.8,14.9,7.9,14.8,8.1,14.8z"/>
	<path class="st0" d="M22.3,14.8h2c0.1,0,0.3,0.1,0.3,0.3v2.6c0,0.1-0.1,0.3-0.3,0.3h-1.7c-0.2,0-0.4,0.2-0.4,0.4
		c0,0.2,0.2,0.4,0.4,0.4h1.7c0.6,0,1.1-0.5,1.1-1.1V15c0-0.6-0.5-1.1-1.1-1.1h-2c-0.2,0-0.4,0.2-0.4,0.4
		C21.9,14.6,22.1,14.8,22.3,14.8z"/>
	<path class="st0" d="M21.4,18.8c0-0.3-0.2-0.5-0.5-0.6l-3.3-1.1c-0.2-0.1-0.4,0-0.6,0.1c-0.2,0.1-0.3,0.3-0.3,0.5l-0.2,3.5
		c0,0.3,0.1,0.5,0.4,0.7c0.2,0.1,0.5,0.1,0.8,0l0.7-0.5l0.8,1.2c0.1,0.2,0.3,0.3,0.4,0.3c0,0,0.1,0,0.1,0c0.1,0,0.3,0,0.4-0.1
		l1.1-0.7c0.3-0.2,0.4-0.7,0.2-1l-0.8-1.2l0.7-0.5C21.3,19.3,21.4,19.1,21.4,18.8L21.4,18.8z M19.6,22l-1-1.4
		c-0.1-0.1-0.2-0.2-0.3-0.2c0,0-0.1,0-0.1,0c-0.1,0-0.2,0-0.2,0.1L17.3,21l0.2-2.9l2.8,0.9l-0.7,0.5c-0.1,0.1-0.2,0.2-0.2,0.3
		c0,0.1,0,0.2,0.1,0.3l1,1.4L19.6,22z"/>
</g>
</svg>
