<?xml version="1.0" encoding="utf-8"?>
<!-- Generator: Adobe Illustrator 26.0.1, SVG Export Plug-In . SVG Version: 6.00 Build 0)  -->
<svg version="1.1" id="Capa_1" xmlns="http://www.w3.org/2000/svg" xmlns:xlink="http://www.w3.org/1999/xlink" x="0px" y="0px"
	 viewBox="0 0 175.8 30.2" style="enable-background:new 0 0 175.8 30.2;" xml:space="preserve">
<style type="text/css">
	.st0{fill:#FFFFFF;}
</style>
<path class="st0" d="M11.6,16.9c1.1,0,2.1-0.9,2.1-2s-0.9-2.1-2-2.1s-2.1,0.9-2.1,2c0,0,0,0,0,0C9.6,16,10.5,16.9,11.6,16.9z"/>
<path class="st0" d="M27.7,16.9c1.1,0,2.1-0.9,2.1-2.1c0-1.1-0.9-2.1-2.1-2.1c-1.1,0-2.1,0.9-2.1,2.1c0,0,0,0,0,0
	C25.6,16,26.5,16.9,27.7,16.9z"/>
<path class="st0" d="M38.9,7.2L33.4,0H5.9L0.4,7.2C-0.2,8-0.1,9.1,0.7,9.7C1,9.9,1.4,10,1.8,10h1.5v20.1h8.2
	c3.8-0.1,6.8-3.1,6.8-6.9V10.1H21v13.2c0,3.8,3.1,6.9,6.9,6.9c0,0,0,0,0,0h8.1V10.1h1.4c1,0,1.8-0.8,1.8-1.7
	C39.3,7.9,39.2,7.5,38.9,7.2z M15.5,20.1h-4.1c0,2.2,1.8,4.1,4,4.1c-0.5,1.9-2.1,3.2-4.1,3.2H5.9V10.1h9.6V20.1z M33.4,27.4H28
	c-1.9,0-3.6-1.3-4.1-3.2c2.2-0.1,4-1.9,4-4.1h-4.1V10.1h9.6L33.4,27.4z"/>
<path class="st0" d="M52.1,24.5c-1.4,0-2.8-0.3-4.1-0.9c-1.1-0.6-2.1-1.5-2.7-2.6c-0.7-1.1-1-2.4-1-3.8c0-1.3,0.3-2.7,0.9-3.8
	c0.6-1.1,1.5-2,2.6-2.6c1.1-0.7,2.4-1,3.7-1c1.2,0,2.5,0.3,3.5,0.9c1,0.6,1.9,1.5,2.4,2.6c0.6,1.1,0.9,2.4,0.8,3.7v1.1h-9.6
	c0.2,0.7,0.7,1.4,1.3,1.8c0.8,0.5,1.7,0.7,2.6,0.7c0.5,0,1.1,0,1.6-0.2c0.5-0.2,1-0.5,1.5-0.9l2.1,3C57,23.1,56.1,23.7,55,24
	C54.1,24.3,53.1,24.5,52.1,24.5z M51.6,13.5c-1.4-0.2-2.7,0.8-3,2.2h5.5l0,0c0-0.6-0.3-1.2-0.8-1.5C52.9,13.7,52.3,13.5,51.6,13.5z"
	/>
<path class="st0" d="M65.8,24.5c-1.3,0-2.6-0.2-3.7-0.7c-1-0.4-1.9-1-2.6-1.8l2.7-2.3c0.5,0.5,1.2,0.9,1.9,1.2
	c0.6,0.2,1.3,0.4,2,0.4c0.4,0,0.7-0.1,1.1-0.3c0.2-0.2,0.4-0.4,0.4-0.7c0-0.3-0.2-0.6-0.5-0.8c-0.7-0.3-1.5-0.6-2.2-0.7
	c-1.3-0.3-2.6-0.9-3.6-1.8c-0.4-0.3-0.7-0.8-0.8-1.2c-0.2-0.5-0.3-1-0.3-1.6c0-0.9,0.3-1.7,0.8-2.4c0.6-0.7,1.3-1.2,2.1-1.6
	c0.9-0.4,1.8-0.6,2.8-0.6c1.1,0,2.3,0.2,3.3,0.6c1,0.4,1.9,0.9,2.7,1.6l-2.3,2.6c-0.5-0.4-1.1-0.8-1.7-1.1c-0.6-0.3-1.3-0.5-1.9-0.5
	c-0.9,0-1.4,0.3-1.4,1c0,0.4,0.2,0.7,0.6,0.9c0.3,0.1,0.5,0.2,0.8,0.3c0.4,0.1,0.9,0.3,1.6,0.5c0.7,0.2,1.5,0.5,2.2,0.8
	c0.5,0.2,1,0.6,1.4,1c0.6,0.6,0.9,1.4,0.8,2.3c0,0.9-0.3,1.8-0.8,2.5c-0.6,0.7-1.3,1.3-2.1,1.7C67.9,24.3,66.8,24.5,65.8,24.5z"/>
<path class="st0" d="M75.3,24.2V14h-2.5v-3.9h2.4V6.5h4.5v3.6h2.6V14h-2.6v10.3H75.3z"/>
<path class="st0" d="M89.2,24.5c-1.4,0.1-2.7-0.5-3.7-1.5c-1-1.2-1.4-2.7-1.3-4.2v-8.7h4.5v8.2c0,0.7,0.2,1.3,0.6,1.9
	c0.4,0.5,1,0.7,1.6,0.7c0.6,0,1.2-0.2,1.7-0.6c0.4-0.4,0.7-1,0.7-1.6v-8.5h4.5v14.2h-4.2l-0.1-1.8c-0.5,0.6-1.1,1.2-1.8,1.5
	C90.9,24.3,90.1,24.5,89.2,24.5z"/>
<path class="st0" d="M123,24.5c-1.4,0-2.8-0.3-4-1c-1.1-0.6-2.1-1.5-2.8-2.6c-0.7-1.1-1-2.4-1-3.7c0-1.3,0.3-2.7,1-3.8
	c0.7-1.1,1.6-2,2.8-2.6c2.5-1.3,5.4-1.3,7.9,0c2.4,1.3,3.8,3.7,3.8,6.4c0,1.3-0.3,2.6-1,3.8c-0.7,1.1-1.6,2-2.8,2.6
	C125.7,24.2,124.4,24.5,123,24.5z M123,20.6c0.9,0,1.7-0.3,2.2-1c0.6-0.7,0.9-1.6,0.9-2.5c0-0.9-0.3-1.8-0.9-2.5
	c-0.6-0.6-1.4-1-2.2-1c-0.9,0-1.7,0.3-2.3,1c-0.6,0.7-0.9,1.6-0.9,2.5c0,0.9,0.3,1.8,0.9,2.5C121.3,20.3,122.1,20.6,123,20.6z"/>
<path class="st0" d="M137.6,24.5c-1.4,0.1-2.7-0.5-3.7-1.5c-0.9-1.2-1.4-2.7-1.3-4.2v-8.7h4.5v8.2c0,0.7,0.2,1.3,0.6,1.9
	c0.4,0.5,1,0.7,1.6,0.7c0.6,0,1.2-0.2,1.7-0.6c0.4-0.4,0.7-1,0.7-1.6v-8.5h4.5v14.2H142l-0.1-1.8c-0.5,0.6-1.1,1.2-1.8,1.5
	C139.3,24.3,138.4,24.5,137.6,24.5z"/>
<path class="st0" d="M154.3,24.5c-1.3,0-2.6-0.2-3.8-0.7c-1-0.4-1.9-1-2.6-1.8l2.7-2.3c0.5,0.5,1.2,0.9,1.9,1.2
	c0.6,0.2,1.3,0.4,2,0.4c0.4,0,0.7-0.1,1.1-0.3c0.2-0.2,0.4-0.4,0.4-0.7c0-0.3-0.2-0.6-0.5-0.8c-0.7-0.3-1.5-0.6-2.2-0.7
	c-1.3-0.3-2.6-0.9-3.6-1.8c-0.4-0.3-0.7-0.8-0.9-1.2c-0.2-0.5-0.3-1-0.3-1.6c0-0.9,0.3-1.7,0.8-2.4c0.6-0.7,1.3-1.2,2.1-1.6
	c0.9-0.4,1.8-0.6,2.8-0.6c1.1,0,2.3,0.2,3.3,0.6c1,0.4,1.8,0.9,2.6,1.6l-2.3,2.6c-0.5-0.4-1.1-0.8-1.7-1.1c-0.6-0.3-1.3-0.5-1.9-0.5
	c-0.9,0-1.4,0.3-1.4,1c0,0.4,0.2,0.7,0.6,0.9c0.2,0.1,0.5,0.3,0.8,0.4c0.4,0.1,0.9,0.3,1.6,0.5c0.7,0.2,1.5,0.5,2.2,0.8
	c0.5,0.2,1,0.6,1.4,1c0.6,0.6,0.9,1.4,0.9,2.3c0,0.9-0.3,1.7-0.8,2.5c-0.6,0.7-1.3,1.3-2.1,1.7C156.4,24.3,155.4,24.5,154.3,24.5z"
	/>
<path class="st0" d="M169.6,24.5c-1.4,0-2.8-0.3-4.1-0.9c-1.1-0.6-2.1-1.5-2.7-2.6c-0.7-1.1-1-2.4-1-3.8c0-1.3,0.3-2.7,0.9-3.9
	c0.6-1.1,1.5-2,2.6-2.6c1.1-0.7,2.4-1,3.7-1c1.2,0,2.5,0.3,3.5,0.9c1,0.6,1.9,1.5,2.4,2.6c0.6,1.1,0.9,2.4,0.8,3.7v1.1h-9.6
	c0.2,0.7,0.7,1.4,1.4,1.8c0.8,0.5,1.7,0.7,2.6,0.7c0.5,0,1.1-0.1,1.6-0.2c0.5-0.2,1-0.5,1.4-0.9l2.1,3
	C173.6,23.7,171.6,24.4,169.6,24.5L169.6,24.5z M169.1,13.5c-1.4-0.2-2.7,0.8-3,2.2h5.5l0,0c0-0.6-0.3-1.2-0.8-1.5
	C170.3,13.7,169.7,13.5,169.1,13.5z"/>
<path class="st0" d="M108.4,9.8c-1.6,0-3.1,0.7-4.2,1.9V6.5h-4.4v17.8h4.5v-8.5c0-0.6,0.2-1.2,0.7-1.6c0.5-0.4,1.1-0.7,1.8-0.6
	c1.4,0,2,0.7,2,2.3v8.4h4.5v-8.7c0.1-1.5-0.3-3.1-1.3-4.3C111.1,10.2,109.8,9.7,108.4,9.8z"/>
</svg>
