<?xml version="1.0" encoding="utf-8"?>
<!-- Generator: Adobe Illustrator 25.2.3, SVG Export Plug-In . SVG Version: 6.00 Build 0)  -->
<svg version="1.1" id="Capa_1" xmlns="http://www.w3.org/2000/svg" xmlns:xlink="http://www.w3.org/1999/xlink" x="0px" y="0px"
	 viewBox="0 0 34.4 34.4" style="enable-background:new 0 0 34.4 34.4;" xml:space="preserve">
<style type="text/css">
	.st0{fill:#F75757;}
</style>
<g>
	<g>
		<path class="st0" d="M21.2,21.1v-4.6c0-0.8-0.7-1.5-1.5-1.5h-14c-0.8,0-1.5,0.7-1.5,1.5v4.6c-1.1,0.2-2,1.2-2,2.4v3v5
			c0,0.3,0.2,0.5,0.5,0.5h2c0.3,0,0.5-0.2,0.5-0.5v-1.5h15v1.5c0,0.3,0.2,0.5,0.5,0.5h2c0.3,0,0.5-0.2,0.5-0.5v-5v-3
			C23.2,22.4,22.3,21.4,21.2,21.1z M5.2,16.6c0-0.3,0.2-0.5,0.5-0.5h14c0.3,0,0.5,0.2,0.5,0.5v4.5h-1v-2c0-0.8-0.7-1.5-1.5-1.5h-3
			c-0.8,0-1.5,0.7-1.5,1.5v2h-1v-2c0-0.8-0.7-1.5-1.5-1.5h-3c-0.8,0-1.5,0.7-1.5,1.5v2h-1V16.6z M18.2,19.1v2h-4v-2
			c0-0.3,0.2-0.5,0.5-0.5h3C18,18.6,18.2,18.8,18.2,19.1z M11.2,19.1v2h-4v-2c0-0.3,0.2-0.5,0.5-0.5h3C11,18.6,11.2,18.8,11.2,19.1z
			 M22.2,31.1h-1v-1.5c0-0.3-0.2-0.5-0.5-0.5h-16c-0.3,0-0.5,0.2-0.5,0.5v1.5h-1v-4h19V31.1z M22.2,26.1h-19v-2.5
			c0-0.8,0.7-1.5,1.5-1.5h2h5h2h5h2c0.8,0,1.5,0.7,1.5,1.5V26.1z"/>
	</g>
</g>
<g>
	<g>
		<path class="st0" d="M31.7,21.1h-7c-0.3,0-0.5,0.2-0.5,0.5v4v3.5h1v-3h6v3h1v-3.5v-4C32.2,21.3,32,21.1,31.7,21.1z M31.2,25.1h-6
			v-3h6V25.1z"/>
	</g>
</g>
<g>
	<g>
		<rect x="27.2" y="23.1" class="st0" width="2" height="1"/>
	</g>
</g>
<g>
	<g>
		<path class="st0" d="M30.7,16.9l-1-3c-0.1-0.2-0.3-0.3-0.5-0.3h-2c-0.2,0-0.4,0.1-0.5,0.3l-1,3c-0.1,0.2,0,0.3,0.1,0.5
			c0.1,0.1,0.2,0.2,0.4,0.2h1.5v1.5h-1v1h3v-1h-1v-1.5h1.5c0.2,0,0.3-0.1,0.4-0.2C30.7,17.2,30.7,17.1,30.7,16.9z M26.9,16.6l0.7-2
			h1.3l0.7,2H26.9z"/>
	</g>
</g>
<g>
	<g>
		<path class="st0" d="M31.9,8.6L17.4,2.1c-0.1-0.1-0.3-0.1-0.4,0L2.5,8.6C2.3,8.7,2.2,8.9,2.2,9.1v6h1V9.4l14-6.3l14,6.3v5.7h1v-6
			C32.2,8.9,32.1,8.7,31.9,8.6z"/>
	</g>
</g>
<g>
	<g>
		<path class="st0" d="M20.6,9l-1,0.2c0,0.1,0,0.3,0,0.4c0,1.4-1.1,2.5-2.5,2.5s-2.5-1.1-2.5-2.5s1.1-2.5,2.5-2.5
			c0.3,0,0.6,0,0.8,0.1l0.3-0.9c-0.4-0.1-0.8-0.2-1.2-0.2c-1.9,0-3.5,1.6-3.5,3.5s1.6,3.5,3.5,3.5s3.5-1.6,3.5-3.5
			C20.7,9.4,20.7,9.2,20.6,9z"/>
	</g>
</g>
<g>
	<g>
		<path class="st0" d="M20.3,6.2l-3.1,3.1l-0.6-0.6l-0.7,0.7l1,1c0.1,0.1,0.2,0.1,0.4,0.1s0.3,0,0.4-0.1L21,6.9L20.3,6.2z"/>
	</g>
</g>
</svg>
