<svg id="Capa_1" data-name="Capa 1" xmlns="http://www.w3.org/2000/svg" viewBox="0 0 175.77 30.18"><defs><style>.cls-1{fill:#f75757;}</style></defs><path class="cls-1" d="M13.41,18.74a2.06,2.06,0,1,0-2.05-2.06A2.06,2.06,0,0,0,13.41,18.74Z" transform="translate(-1.76 -1.82)"/><path class="cls-1" d="M29.42,18.74a2.06,2.06,0,1,0-2.06-2.06A2.06,2.06,0,0,0,29.42,18.74Z" transform="translate(-1.76 -1.82)"/><path class="cls-1" d="M40.7,9,35.13,1.82H7.7L2.13,9a1.77,1.77,0,0,0,1.4,2.85H5V32h8.16A6.94,6.94,0,0,0,20,25.06V11.88h2.75V25.06A6.94,6.94,0,0,0,29.73,32h8.15V11.88H39.3A1.77,1.77,0,0,0,40.7,9ZM17.3,21.94H13.19a4.11,4.11,0,0,0,4,4.11,4.2,4.2,0,0,1-4.07,3.21H7.7V11.88h9.6Zm17.83,7.32h-5.4a4.2,4.2,0,0,1-4.08-3.21,4.11,4.11,0,0,0,4-4.11H25.53V11.88h9.6Z" transform="translate(-1.76 -1.82)"/><path class="cls-1" d="M53.89,26.31a8.55,8.55,0,0,1-4.12-.94,6.83,6.83,0,0,1-2.7-2.6,7.36,7.36,0,0,1-1-3.76A7.75,7.75,0,0,1,47,15.16a7,7,0,0,1,2.56-2.63,7.15,7.15,0,0,1,3.71-1,6.73,6.73,0,0,1,3.54.94,6.37,6.37,0,0,1,2.4,2.56,7.56,7.56,0,0,1,.82,3.7l0,1.15H50.48a3.26,3.26,0,0,0,1.35,1.81,4.56,4.56,0,0,0,2.57.66A4.48,4.48,0,0,0,56,22.14a5.84,5.84,0,0,0,1.45-.86l2.1,3a8.68,8.68,0,0,1-2.74,1.57A8.88,8.88,0,0,1,53.89,26.31Zm-.51-11a2.69,2.69,0,0,0-3,2.18h5.49v0a2.14,2.14,0,0,0-.76-1.54A2.6,2.6,0,0,0,53.38,15.31Z" transform="translate(-1.76 -1.82)"/><path class="cls-1" d="M67.54,26.31a9.88,9.88,0,0,1-3.75-.66,6.73,6.73,0,0,1-2.57-1.79l2.72-2.34a4.89,4.89,0,0,0,1.88,1.19,5.85,5.85,0,0,0,2,.38,1.78,1.78,0,0,0,1.06-.28.88.88,0,0,0,.38-.74.86.86,0,0,0-.46-.77,11.5,11.5,0,0,0-2.24-.72,7.8,7.8,0,0,1-3.62-1.76,3.44,3.44,0,0,1-.85-1.24,3.94,3.94,0,0,1-.3-1.56,3.65,3.65,0,0,1,.8-2.35,5.18,5.18,0,0,1,2.12-1.55,7.37,7.37,0,0,1,2.81-.55,9.45,9.45,0,0,1,3.32.58,8.29,8.29,0,0,1,2.65,1.56l-2.34,2.63a7.07,7.07,0,0,0-1.69-1.11,4.47,4.47,0,0,0-1.94-.48c-.92,0-1.38.33-1.38,1a1,1,0,0,0,.56.88,5.15,5.15,0,0,0,.82.33c.39.13.94.3,1.63.49a14.36,14.36,0,0,1,2.16.79,4.75,4.75,0,0,1,1.44,1,3.25,3.25,0,0,1,.85,2.29A4,4,0,0,1,72.77,24a5.33,5.33,0,0,1-2.14,1.68A7.44,7.44,0,0,1,67.54,26.31Z" transform="translate(-1.76 -1.82)"/><path class="cls-1" d="M77.08,26.05V15.79H74.63V11.87h2.45V8.3h4.53v3.57h2.64v3.92H81.61V26.05Z" transform="translate(-1.76 -1.82)"/><path class="cls-1" d="M91,26.34a4.6,4.6,0,0,1-3.66-1.51A6.19,6.19,0,0,1,86,20.61V11.87h4.53v8.21a2.76,2.76,0,0,0,.57,1.86,2,2,0,0,0,1.64.67A2.41,2.41,0,0,0,94.43,22a2.18,2.18,0,0,0,.66-1.63V11.87h4.53V26.05H95.39l-.14-1.76a4.87,4.87,0,0,1-1.84,1.49A5.54,5.54,0,0,1,91,26.34Z" transform="translate(-1.76 -1.82)"/><path class="cls-1" d="M124.76,26.31a8.06,8.06,0,0,1-4-1A7.29,7.29,0,0,1,118,22.74,7,7,0,0,1,117,19a7.13,7.13,0,0,1,1-3.8,7.27,7.27,0,0,1,2.76-2.63,8.63,8.63,0,0,1,7.91,0A7.12,7.12,0,0,1,132.46,19a7.12,7.12,0,0,1-1,3.78,7.2,7.2,0,0,1-2.75,2.61A8,8,0,0,1,124.76,26.31Zm0-3.86a2.88,2.88,0,0,0,2.24-1,3.64,3.64,0,0,0,.87-2.5,3.76,3.76,0,0,0-.87-2.55,2.89,2.89,0,0,0-2.24-1,2.93,2.93,0,0,0-2.26,1,3.72,3.72,0,0,0-.89,2.55,3.61,3.61,0,0,0,.89,2.5A2.92,2.92,0,0,0,124.76,22.45Z" transform="translate(-1.76 -1.82)"/><path class="cls-1" d="M139.36,26.34a4.6,4.6,0,0,1-3.66-1.51,6.19,6.19,0,0,1-1.32-4.22V11.87h4.53v8.21a2.76,2.76,0,0,0,.57,1.86,2,2,0,0,0,1.64.67,2.41,2.41,0,0,0,1.71-.64,2.18,2.18,0,0,0,.66-1.63V11.87H148V26.05h-4.23l-.14-1.76a4.87,4.87,0,0,1-1.84,1.49A5.54,5.54,0,0,1,139.36,26.34Z" transform="translate(-1.76 -1.82)"/><path class="cls-1" d="M156.1,26.31a9.88,9.88,0,0,1-3.75-.66,6.73,6.73,0,0,1-2.57-1.79l2.72-2.34a4.89,4.89,0,0,0,1.88,1.19,5.85,5.85,0,0,0,2,.38,1.76,1.76,0,0,0,1.06-.28.88.88,0,0,0,.38-.74.85.85,0,0,0-.46-.77,11.57,11.57,0,0,0-2.23-.72,7.79,7.79,0,0,1-3.63-1.76,3.44,3.44,0,0,1-.85-1.24,3.94,3.94,0,0,1-.3-1.56,3.65,3.65,0,0,1,.8-2.35,5.18,5.18,0,0,1,2.12-1.55,7.37,7.37,0,0,1,2.81-.55,9.41,9.41,0,0,1,3.32.58A8.29,8.29,0,0,1,162,13.71l-2.34,2.63A7.07,7.07,0,0,0,158,15.23a4.47,4.47,0,0,0-1.94-.48c-.92,0-1.38.33-1.38,1a1,1,0,0,0,.56.88A5.15,5.15,0,0,0,156,17c.4.13.94.3,1.63.49a13.59,13.59,0,0,1,2.16.79,4.75,4.75,0,0,1,1.44,1,3.25,3.25,0,0,1,.85,2.29,4,4,0,0,1-.78,2.45,5.36,5.36,0,0,1-2.15,1.68A7.44,7.44,0,0,1,156.1,26.31Z" transform="translate(-1.76 -1.82)"/><path class="cls-1" d="M171.34,26.31a8.55,8.55,0,0,1-4.12-.94,6.83,6.83,0,0,1-2.7-2.6,7.36,7.36,0,0,1-1-3.76,7.75,7.75,0,0,1,.93-3.85,7,7,0,0,1,2.56-2.63,7.17,7.17,0,0,1,3.71-1,6.73,6.73,0,0,1,3.54.94,6.37,6.37,0,0,1,2.4,2.56,7.67,7.67,0,0,1,.83,3.7l0,1.15h-9.57a3.26,3.26,0,0,0,1.35,1.81,4.56,4.56,0,0,0,2.57.66,4.44,4.44,0,0,0,1.56-.25,5.84,5.84,0,0,0,1.45-.86l2.11,3a8.65,8.65,0,0,1-5.63,2Zm-.5-11a2.7,2.7,0,0,0-3,2.18h5.49v0a2.14,2.14,0,0,0-.76-1.54A2.59,2.59,0,0,0,170.84,15.31Z" transform="translate(-1.76 -1.82)"/><path class="cls-1" d="M110.18,11.57A5.68,5.68,0,0,0,106,13.44V8.3h-4.42V26.05h4.5V17.57a2,2,0,0,1,.7-1.57,2.46,2.46,0,0,1,1.76-.64c1.36,0,2,.74,2,2.34v8.35h4.53V17.33a6.39,6.39,0,0,0-1.27-4.28A4.56,4.56,0,0,0,110.18,11.57Z" transform="translate(-1.76 -1.82)"/></svg>